# xmcd
#
# Track frame offsets:
#	150
#	13512
#	22685
#	34380
#	47705
#	59845
#	70537
#	81555
#	93932
#	105290
#	124597
#	136542
#	149647
#	161555
#	174875
#	188395
#	202102
#	215792
#	230880
#	244140
#
# Disc length: 3415 seconds
#
# Revision: 15
# Processed by: cddbd v1.5.2PL0 Copyright (c) Steve Scherf et al.
# Submitted via: dBpowerAMP V4.0
#
DISCID=140d5514
DTITLE=Tammy Wynette - The First Lady Of Country Music - Anniversary (20 Years Of Hits)
DYEAR=1987
DGENRE=Country
TTITLE0=Apartment No 9
TTITLE1=Your Good Girl's Gonna Go Bad
TTITLE2=I Don't Wanna Play House
TTITLE3=Divorce
TTITLE4=Stand By Your Man
TTITLE5=Singing My Song
TTITLE6=Run Woman Run
TTITLE7=We Sure Can Love Each OTher
TTITLE8=Good Lovin' Makes It Right
TTITLE9=Bedtime Story
TTITLE10=Til I Get It Right
TTITLE11=Kids Say The Darndest Things
TTITLE12=Another Lonely Song
TTITLE13=Tammy Wynette and George Jones_We're Gonna Hold On
TTITLE14=Woman To Woman
TTITLE15=Til I Can Make It On My Own
TTITLE16=Tammy Wynette and George Jones_Golden Ring
TTITLE17=You And Me
TTITLE18=One Of A Kind
TTITLE19=Tammy Wynette and George Jones_Two Story House
EXTD=
EXTT0=
EXTT1=
EXTT2=
EXTT3=
EXTT4=
EXTT5=
EXTT6=
EXTT7=
EXTT8=
EXTT9=
EXTT10=
EXTT11=
EXTT12=
EXTT13=
EXTT14=
EXTT15=
EXTT16=
EXTT17=
EXTT18=
EXTT19=
PLAYORDER=
